<?xml version="1.0" encoding="utf-8"?>
<!-- Generator: Adobe Illustrator 26.2.1, SVG Export Plug-In . SVG Version: 6.00 Build 0)  -->
<svg version="1.1" id="Calque_1" xmlns="http://www.w3.org/2000/svg" xmlns:xlink="http://www.w3.org/1999/xlink" x="0px"
  y="0px" viewBox="0 0 306 306" style="enable-background:new 0 0 306 306;" xml:space="preserve">
  <path class="st0" d="M228.2,211.2c14.7-18,23.8-38.2,27.5-60.5s1.5-44.2-6.5-65.5s-20.8-39.5-38.5-54.5s-37.7-24.3-60-28
	s-44.2-1.5-65.5,6.5S45.7,30.1,30.7,47.7s-24.3,37.7-28,60c-3.7,22.3-1.5,44.2,6.5,65.5s20.7,39.7,38,55c16,12.7,33.7,21.2,53,25.5
	s38.7,4.3,58,0s37-12.8,53-25.5l78,77l16-16L228.2,211.2z M129.2,233.2c-18.7,0-36-4.7-52-14s-28.7-22-38-38s-14-33.3-14-52
	s4.7-36,14-52s22-28.7,38-38s33.3-14,52-14s36,4.7,52,14s28.7,22,38,38c9.3,16,14,33.3,14,52s-4.7,36-14,52c-9.3,16-22,28.7-38,38
	S147.9,233.2,129.2,233.2L129.2,233.2z M75.2,75.2c-10,10.7-16.7,23-20,37l24,5c2-9.3,6.3-17.7,13-25c10.7-9.3,23.2-14,37.5-14
	s26.5,4.7,36.5,14l17-17c-15.3-14-33.3-21-54-21S90.6,61.2,75.2,75.2z M55.2,147.2c3.3,13.3,10,25.3,20,36l17-17
	c-6.7-7.3-11-15.7-13-25L55.2,147.2z" />
</svg>