<?xml version="1.0" encoding="UTF-8"?>
<svg id="Calque_1" data-name="Calque 1" xmlns="http://www.w3.org/2000/svg" xmlns:xlink="http://www.w3.org/1999/xlink" viewBox="0 0 230 40">
  <defs>
    <style>
      .cls-1 {
        fill: none;
      }

      .cls-2 {
        clip-path: url(#clippath);
      }

      .cls-3 {
        fill: #24262c;
      }

      .cls-4 {
        clip-path: url(#clippath-1);
      }

      .cls-5 {
        clip-path: url(#clippath-4);
      }

      .cls-6 {
        clip-path: url(#clippath-3);
      }

      .cls-7 {
        clip-path: url(#clippath-2);
      }

      .cls-8 {
        clip-path: url(#clippath-7);
      }

      .cls-9 {
        clip-path: url(#clippath-8);
      }

      .cls-10 {
        clip-path: url(#clippath-6);
      }

      .cls-11 {
        clip-path: url(#clippath-5);
      }
    </style>
    <clipPath id="clippath">
      <path class="cls-1" d="M6.75,25.84c1.54-1.07,4.04-1.07,5.58,0,1.54,1.07,1.54,2.82,0,3.89-1.54,1.07-4.04,1.07-5.58,0-1.54-1.07-1.54-2.82,0-3.89Z"/>
    </clipPath>
    <clipPath id="clippath-1">
      <path class="cls-1" d="M22.73,9.3c2.31-1.61,6.06-1.61,8.37,0,2.31,1.61,2.31,4.22,0,5.84-2.31,1.61-6.06,1.61-8.37,0-2.31-1.61-2.31-4.22,0-5.84Z"/>
    </clipPath>
    <clipPath id="clippath-2">
      <path class="cls-1" d="M14.25,17.57c1.93-1.34,5.05-1.34,6.97,0,1.93,1.34,1.93,3.52,0,4.86-1.93,1.34-5.05,1.34-6.97,0-1.93-1.34-1.93-3.52,0-4.86Z"/>
    </clipPath>
    <clipPath id="clippath-3">
      <path class="cls-1" d="M1.87,18.54c1.16-.81,3.03-.81,4.18,0,1.16,.81,1.16,2.11,0,2.92-1.16,.81-3.03,.81-4.18,0-1.16-.81-1.16-2.11,0-2.92Z"/>
    </clipPath>
    <clipPath id="clippath-4">
      <ellipse class="cls-1" cx="17.73" cy="4.44" rx="4.93" ry="3.44"/>
    </clipPath>
    <clipPath id="clippath-5">
      <path class="cls-1" d="M6.75,10.27c1.54-1.07,4.04-1.07,5.58,0,1.54,1.07,1.54,2.82,0,3.89-1.54,1.07-4.04,1.07-5.58,0-1.54-1.07-1.54-2.82,0-3.89Z"/>
    </clipPath>
    <clipPath id="clippath-6">
      <path class="cls-1" d="M14.25,33.13c1.93-1.34,5.05-1.34,6.97,0,1.93,1.34,1.93,3.52,0,4.86-1.93,1.34-5.05,1.34-6.97,0-1.93-1.34-1.93-3.52,0-4.86Z"/>
    </clipPath>
    <clipPath id="clippath-7">
      <path class="cls-1" d="M32.9,17.08c2.31-1.61,6.06-1.61,8.37,0,2.31,1.61,2.31,4.22,0,5.84-2.31,1.61-6.06,1.61-8.37,0-2.31-1.61-2.31-4.22,0-5.84Z"/>
    </clipPath>
    <clipPath id="clippath-8">
      <path class="cls-1" d="M22.73,24.86c2.31-1.61,6.06-1.61,8.37,0,2.31,1.61,2.31,4.22,0,5.84-2.31,1.61-6.06,1.61-8.37,0-2.31-1.61-2.31-4.22,0-5.84Z"/>
    </clipPath>
  </defs>
  <g>
    <g class="cls-2">
      <polygon class="cls-3" points="5.59 25.03 13.48 25.03 13.48 30.53 5.59 30.53 5.59 25.03"/>
    </g>
    <g class="cls-4">
      <polygon class="cls-3" points="21 8.09 32.83 8.09 32.83 16.35 21 16.35 21 8.09"/>
    </g>
    <g class="cls-7">
      <polygon class="cls-3" points="12.8 16.56 22.66 16.56 22.66 23.44 12.8 23.44 12.8 16.56"/>
    </g>
    <g class="cls-6">
      <polygon class="cls-3" points="1 17.94 6.92 17.94 6.92 22.06 1 22.06 1 17.94"/>
    </g>
    <g class="cls-5">
      <polygon class="cls-3" points="12.8 1 22.66 1 22.66 7.88 12.8 7.88 12.8 1"/>
    </g>
    <g class="cls-11">
      <polygon class="cls-3" points="5.59 9.47 13.48 9.47 13.48 14.97 5.59 14.97 5.59 9.47"/>
    </g>
    <g class="cls-10">
      <polygon class="cls-3" points="12.8 32.12 22.66 32.12 22.66 39 12.8 39 12.8 32.12"/>
    </g>
    <g class="cls-8">
      <polygon class="cls-3" points="31.17 15.87 43 15.87 43 24.13 31.17 24.13 31.17 15.87"/>
    </g>
    <g class="cls-9">
      <polygon class="cls-3" points="21 23.65 32.83 23.65 32.83 31.91 21 31.91 21 23.65"/>
    </g>
  </g>
  <g>
    <path d="M54.19,30.55c-.9-.7-2.27-2.11-2.62-2.14,1.02-1.12,1.31-2.24,2.98-2.56,1.18,1.06,2.78,2.37,4.67,2.37,.13,0,1.02-.19,1.18-.19,.38-.03,.99-.16,1.54-.45,1.02-.48,1.41-1.44,1.79-3.1,0-.77-.16-1.41-.42-1.7-.16-.13-.35-.26-.51-.48-.06-.06-.51-.22-.58-.26-1.28-.61-3.36-.67-4.61-1.22-.61-.32-2.43-1.06-3.36-1.92-1.18-1.09-2.05-1.89-2.05-4.1,0-.35,.16-.22,.16-.38,0-.42,.38-1.7,.83-2.5,.58-1.02,2.4-2.56,2.59-2.91,.29,0,2.5-1.41,3.23-1.41,.26,0,1.18-.13,2.62-.13,.61,0,1.25,.06,1.89,.26,.58,.16,.96,.51,1.25,.64,1.12,.38,1.5,.32,2.34,.93,.35,.29,.83,1.38,1.28,1.66-.13,1.76-.99,2.72-2.56,2.88-.22-.77-2.37-3.04-4.54-3.04-2.05,0-2.69,.58-3.04,.7-.9,.32-1.31,1.41-1.5,2.59-.16,0-.16,.45-.29,.45,0,.06,.1,.26,.1,.35,0,.32,0,.35,.19,.64,.42,.48,.93,.96,1.47,1.06,.26,0,.83,.45,1.28,.58,.22,.06,.61,.03,1.12,.1,.7,.13,1.63,.51,2.66,.8,.51,.13,1.15,.67,1.86,.8,1.09,1.06,2.94,1.98,2.94,5.92,0,.45-1.22,3.04-1.22,3.39-.45,.16-1.18,1.86-2.34,2.18-.67,.42-1.12,.77-1.66,.99-.22,0-1.06,.06-1.22,.29-.99,.06-1.31,.13-2.11,.13-1.98,0-3.52-.29-5.34-1.22Z"/>
    <path d="M71.95,12.54c.74,0,2.02,.54,2.53,.67,.29,.61,.38,1.12,.38,1.6,0,.74-.22,1.47-.22,2.43s.64,1.6,.64,2.46c0,.74-.13,2.02-.13,3.07,0,1.89,.38,2.85,1.34,4.06,.22,.03,.38,.06,.54,.06,1.47,0,1.92-1.47,2.82-2.08,0-.19-.03-.35-.03-.51,0-.54,.67-1.66,1.22-1.89,.06-.32,.22-.58,.22-.86,0-1.18,.67-2.02,.67-2.82,0-.26-.06-.48-.26-.74,.48-.51,.61-1.02,.9-1.7-.06-.42-.13-.7-.13-1.02,0-.16,.03-.35,.13-1.02,.45-.67,1.02-.96,1.6-.96,1.15,0,2.4,1.38,2.4,2.5,0,.58-.32,2.02-.32,2.69,.06,.64,.22,1.06,.29,1.57,0,.58-.32,.61-.32,1.02,0,.64,.61,1.09,.61,1.34,0,.99,1.18,3.74,1.6,3.74,.74,0,1.31-1.82,1.79-2.4,.58-.67,.19-.58,.61-2.02,.06-.29,.58-.64,.58-1.02,0-.45,.29-.9,.29-1.31,0-.86,.54-1.02,.64-2.46,0-.83-.03-1.54-.03-2.24,0-.16,.03-.32,.06-.48,.45-.54,.86-1.09,1.22-1.7,2.14,0,3.68,.93,3.68,2.78s-2.05,5.34-2.05,6.85c0,.38-.16,1.12-.22,1.63-.19,0-.29,.74-.35,.99-1.02,1.7-1.98,1.95-2.91,4.45-1.25,.26-1.73,1.6-2.62,1.6-.7,0-1.09-.42-1.95-.42-.38-.9-1.25-1.12-1.5-2.21-1.31-.35-1.47-2.4-2.14-3.14-1.54,2.75-3.33,5.5-6.34,5.5-1.57,0-1.5-.29-2.5-1.18-.7-.61-.99-.19-1.54-.86-.26-.35-.67-.9-1.25-1.38-.16-.51-.22-1.02-.22-1.54,0-1.06,.26-2.08,.26-3.07,0-1.31-.96-2.14-.96-3.26,0-.45,.32-1.18,.32-1.82,0-1.38-.45-1.98-.45-2.75,.03-.58,.45-.96,.45-1.38,0-.13-.03-.29-.16-.45,.19-.26,.51-.35,.83-.35Z"/>
    <path d="M104.27,15.61c-.22,.86-.06,1.92-.64,2.37,.16,.32,.58,.35,.58,.99-.03,1.02-.03,2.59-.03,4.54,0,2.11,.1,4.35,.38,5.73-.42,.99-1.15,1.34-2.11,1.7-1.09-.38-2.21-1.38-2.21-2.62,0-.9,.38-1.95,.38-3.14,0-.67-.32-1.47-.32-2.05,0-2.27,.45-4.29,.45-6.56,0-.54-.03-1.12-.13-1.66,.7-.61,1.57-.8,3.1-.8,.16,.61,.35,1.18,.54,1.5Zm1.31-5.54c0,.19-.03,.38-.06,.61-.35,.29-1.25,1.02-1.57,1.02-1.22,0-1.95-.7-2.66-.74,0-.9-.38-1.12-.38-1.92,0-.13,.61-.93,.64-1.09,.7-.32,1.28-.7,2.24-.7,.16,0,.64,.1,.8,.13,.29,1.12,.99,1.28,.99,2.69Z"/>
    <path d="M116.21,18.65c-.06,.29-.06,1.02-.06,1.25,0,.61,.03,.51,.03,1.31,0,.29-.03,.61-.16,.99,.06,.16,.29,.77,.29,1.02,0,.19-.03,.32-.16,.35,.38,.7,.1,1.25,.74,1.66-.22,.38-.32,.67-.32,.93,0,.7,.16,1.12,.16,2.21,0,1.95-.54,3.94-2.34,3.94-.58,0-1.18-.19-1.79-.58-.06-.38-.1-.7-.1-1.02,0-1.47,.03-2.27,.38-3.04-.22-3.17-.42-5.06-.61-8.64-1.12,.1-2.34,.13-3.39,.13-1.22,0-1.66-.29-2.14-1.44,.19-3.04,3.26-1.57,5.57-2.34,.67-2.75,.9-6.3,2.53-7.39,1.09-.7,2.46-.45,2.98-1.15,1.63-.22,2.3-.22,3.14-.22,.35,0,1.5,.42,1.89,.48,.51,.1,.74,.61,1.09,.61,.13,0,.26-.06,.45-.26-.19,1.44-.06,2.21-1.25,2.4-1.5,.22-2.3,.22-3.17,.22-.48,0-1.02,0-1.82,.38-1.79,.9-1.86,1.92-2.05,4.9,.42,.29,.83,.32,1.44,.32,.93,0,2.02-.22,2.98-.22,.32,0,.64,.03,.93,.13,1.15,.38,2.14,.38,2.14,1.47,0,1.47-.61,.35-.9,1.82-1.18,0-2.53,.19-3.78,.19s-1.79-.1-2.69-.42Z"/>
    <path d="M134.67,7.58c0,1.12,0,1.79-.19,2.59,.03,.19,.06,.42,.06,.67,0,.93-.19,2.11-.19,2.85,.93,.42,2.85,.48,4.29,.48,1.12,0,1.92,.8,2.05,1.6,.03,.19,.06,.38,.06,.58,0,1.7-4.45,1.89-6.27,1.98-.06,.22-.13,.96-.13,1.18,0,.7,.22,1.82,.22,2.62,0,.9-.03,2.24-.03,3.49,0,.38,.22,.8,.35,1.15,.13,.45,.7,.83,.9,.83,1.38,0,2.02-.42,2.21-1.12,.67-.1,.96-1.09,1.82-1.09,.42,0,.8,.64,1.57,.64,.1,.35,.13,.7,.13,1.34,0,2.24-2.05,2.53-3.94,3.9-.29-.13-.58-.16-.86-.16-.86,0-1.73,.42-2.62,.42-.19,0-.42-.03-.61-.1-.74-.1-1.6-.86-2.02-1.41-.1-1.82-.74-2.18-.74-2.88,0-.35-.19-1.47-.19-6.05,0-.51-.03-2.69-.06-2.98-.64-.35-.77-.38-1.47-.38-1.63,0-3.14,0-3.14-2.34,.8-1.47,3.39-.99,4.9-1.7,0-.9-.03-1.95-.03-2.43,0-.45,.29-2.24,.29-2.69,0-1.28,.16-1.57,.96-2.34,.93,0,1.76,.13,2.62,.51,.06,.29,.06,.54,.06,.8Z"/>
    <path d="M157.01,30.17c-.13-1.15-.45-2.11-.45-3.36,0-.64,.16-1.15,.16-1.63,0-.77-.06-1.34-.1-2.11-.03-.45-.03-.9-.03-1.38,0-1.44,.06-4.26,.06-5.82s-.1-4.8-.1-5.12c-.48,0-1.22-.13-2.08-.13-.22,0-.48,.03-.8,.13-4.51,0-5.89-.26-5.89-2.34,0-.22,.03-.48,.13-.74,.51-.32,1.41-1.12,2.05-1.12,.67,0,1.66,.03,2.3,.22,.22-.1,.48-.13,.74-.13,1.41,0,1.86-.03,2.91-.13,.64,0,5.21,.1,6.08,.1,.8,0,2.53-.16,3.87-.16,1.6,0,1.86,.38,2.69,2.78,0,1.09-2.4,1.41-4.7,1.41-.58-.16-.96-.26-1.28-.26-.35,0-.8,.1-1.92,.22,0,.45,.32,6.85,.32,7.33,0,.93-.03,1.73-.32,1.73,.16,.8,.22,2.14,.22,3.3,0,.9-.13,1.82-.19,2.82,.38,1.22,.38,2.18,.38,3.74,0,.8-1.7,1.12-2.21,1.12-.54,0-1.15-.16-1.86-.48Z"/>
    <path d="M175.92,14.59c.29,0,.48,.06,.67,.29,.32-.16,.58-.22,.8-.22,.54,0,1.6,.32,2.56,.51,.83,.16,2.14,.86,2.14,1.54,0,.13-.06,.32-.06,.45,0,.29,1.47,.99,1.66,1.47,.26,.96,.86,2.02,.86,3.3,0,.83-.1,1.86-.38,2.18,0,.29,.1,1.02,.1,1.73,0,.16-.03,.35-.06,.58,.06,.13,.06,.22,.06,.32,0,.51-.67,.51-.96,1.06-.38,.61-.22,1.25-.64,1.66-.13,.16-.96,.64-1.5,1.02-.9,.61-1.5,.93-2.08,.93-.29,0-.13,.48-.35,.48-.51,0-.9,.64-1.54,.64-.22,0-.9,.1-1.47,.1-1.15,0-2.46-.96-3.81-.99,0-.48-1.95-1.5-2.3-1.5-1.41-2.14-2.18-3.81-2.18-7.1,.35-.38,.35-2.14,.99-3.9,.45-1.25,1.73-1.34,1.95-2.82,.93,0,1.25-.93,1.6-.93,.19,0,.35,.06,.64,.19,.45-.64,1.06-.45,1.7-.9,.42,0,1.15-.06,1.6-.06Zm-2.72,4.38c-1.06,0-.93,1.95-1.7,2.34,0,.32-.13,.67-.13,1.09,0,.9,.16,1.6,.16,2.34,0,.45,.22,.67,.22,1.09,0,1.76,1.09,1.76,1.63,2.69,.32,0,1.92,.67,2.24,.67,.48,0,.29-.32,.74-.32,.26,0,1.06-.29,1.44-.45,1.06-.42,2.02-1.09,2.59-2.69,0-.74,.45-1.63,.45-2.82,0-.67-.16-1.57-.74-2.94-.64,0-1.02-2.05-4.35-2.05-.38,.42-1.47-.13-2.56,1.06Z"/>
    <path d="M203.79,9.5c0,1.09-.32,1.95-.32,3.52,0,1.31,0,2.37,.13,3.46-.06,.1-.1,.96-.1,1.09,0,.51,.13,.77,.13,1.28,0,.13-.16,.64-.26,.77,.13,.61,.13,.96,.13,1.7s.22,1.31,.22,1.95c0,3.49,1.95,4.26,1.95,6.14-.38,.8-1.18,1.7-2.08,1.7-.45,0-.83-.16-1.15-.48-1.18-2.43-2.05-4.35-2.46-6.82-.26,.96-.48,1.34-.48,1.98,0,.13,.03,.22,.1,.32-1.41,.67-2.3,2.5-3.62,3.3,0-.26-.1-.58-.26-.58-.13,0-.16,.06-.16,.19,0,.19,.03,.35,.03,.48,0,.16-.26,.38-.45,.51-1.54,1.06-2.69,.29-4.06,1.09-.7-.7-2.21-.9-3.04-2.27-.32-1.92-1.22-2.66-1.25-5.12,.77-.32,.38-2.05,.64-2.66,.16-.35,.42-.38,.61-.67,.06-.13,.1-.26,.1-.38,0-.1-.03-.26-.1-.29,.9-1.6,2.18-1.63,2.91-3.42,.1,.03,.19,.03,.29,.03,.51,0,2.27-1.89,3.01-1.89,.64-.06,1.5-.19,2.08-.19,1.02,0,2.18,.35,3.1,.83,.06-.38,0-1.92,.13-2.21-.1-.54-.16-1.09-.16-1.63,0-.74,.26-1.54,.26-2.14,0-.26,0-1.63-.1-2.46,.45-.74,1.44-1.28,2.34-1.28,.51,0,1.15,.19,1.57,.61,.26,1.31,.32,3.01,.32,3.55Zm-11.36,10.4c0,.13-.48,.45-.48,.58,0,.45-.45,.74-.54,1.5-.42,.54-.61,1.22-.61,2.05,0,.96,.22,1.95,.61,2.56,.51,.29,.96,.38,1.38,.38,.74,0,1.22-.48,1.79-.86,.58-.35,1.7-2.08,1.98-2.53,.96-1.47,1.92-2.91,2.11-5.28-.06-.32-.16-.38-.32-.45-.19-.06-.19-.19-.29-.19-1.31,0-3.04,.16-3.55,.67-.42,.45-1.66,.77-2.08,1.57Z"/>
    <path d="M214,12.7c.67,0,1.38-.48,2.14-.48,1.12,0,1.7,.19,2.37,.19,.16,0,.64-.03,.8-.06,.7,0,1.63,.61,2.24,.61,.51,1.25,1.31,1.41,2.24,2.18,0,.7,1.25,1.7,1.25,2.11,0,1.31,.16,3.17,.58,4.1-.51,1.31-.29,3.07-1.41,5.06-1.22,.42-1.15,1.98-2.66,2.43-.74,.22-1.6,1.09-2.05,1.09-.9,0-1.57,.61-2.56,.61-1.15,0-.45-.42-1.6-.42-.32,0-.64,.06-.99,.16-.64-.7-2.14-1.25-3.39-1.7-.48-1.09-1.79-2.37-1.79-2.98,0-.64-.93-3.14-.93-4.8,0-2.02,1.28-4.32,1.76-5.95,1.44,0,1.54-1.7,3.42-2.27,.16,.1,.38,.13,.58,.13Zm1.86,3.04c-.74,0-1.44,.64-2.11,.64-1.28,1.28-1.57,3.2-1.57,4.74,0,.93,.38,2.72,.38,2.94,0,.45,.8,1.7,1.47,2.14,.1-.1,.19-.13,.32-.13,.51,0,1.22,.77,1.89,.77,1.12,0,2.21-.7,2.94-.7,.19,0,.64-.86,.86-.86,.35,0,1.5-2.21,1.5-3.74,0-.7-.16-1.22-.16-1.76,0-1.86-1.25-2.62-1.25-3.26-.93-.1-1.28-.9-1.98-.9-.61,0-1.06,.06-1.7,.35-.13-.1-.48-.22-.61-.22Z"/>
  </g>
</svg>